<svg width="21" height="21" viewBox="0 0 21 21" fill="none" xmlns="http://www.w3.org/2000/svg">
<path d="M16.566 18.992V16.484C15.29 17.408 13.266 18.134 10.824 18.134C6.534 18.134 3.432 14.834 3.432 10.698C3.432 6.518 6.6 3.24 11.044 3.24C15.356 3.24 18.018 6.298 18.018 9.444C18.018 11.49 17.27 12.854 15.862 12.854C14.894 12.854 14.366 12.15 14.586 10.94L15.378 6.21H12.65L12.474 7.156C11.902 6.342 11.066 5.902 9.922 5.902C7.634 5.902 5.918 7.838 5.764 10.522C5.588 13.272 7.128 15.164 9.504 15.164C10.824 15.164 11.902 14.636 12.672 13.646C13.112 14.482 14.014 15.164 15.73 15.164C18.568 15.164 20.746 12.766 20.746 9.158C20.746 4.736 16.61 0.907999 11.044 0.907999C5.17 0.907999 0.704 5.242 0.704 10.698C0.704 16.132 5.082 20.466 10.824 20.466C12.98 20.466 14.96 19.916 16.566 18.992ZM8.646 10.61C8.69 9.202 9.46 8.234 10.45 8.234C11.396 8.234 11.968 9.114 11.88 10.456C11.814 11.864 11.132 12.854 10.142 12.854C9.174 12.854 8.58 11.908 8.646 10.61Z" fill="#B5BDC5"/>
</svg>
