<svg width="140" height="32" viewBox="0 0 140 32" fill="none" xmlns="http://www.w3.org/2000/svg">
<g clip-path="url(#clip0_313:2840)">
<path d="M16.1549 0.2192C25.2179 0.1532 32.5596 7.3552 32.5596 16.1409V30.32C32.5596 31.127 31.8847 31.7813 31.0522 31.7813H16.4251C7.3618 31.7813 -0.0677109 24.6644 0.000400543 15.879C0.067173 7.25926 7.26285 0.28395 16.1549 0.2192Z" fill="#E2C700"/>
<path d="M2.69261 7.30566C5.44002 18.0384 15.3207 25.984 27.0893 25.984C28.968 25.984 30.7984 25.7812 32.5596 25.3972V30.32C32.5596 31.127 31.8847 31.7813 31.0522 31.7813H16.4251C7.3618 31.7813 -0.0677109 24.6645 0.000400543 15.879C0.0249443 12.7119 1.0128 9.76754 2.69261 7.30566Z" fill="#F7E353"/>
</g>
<path d="M55.4868 19.7999C55.3421 20.4043 55.0979 20.991 54.7542 21.5599C54.4105 22.111 53.9854 22.6088 53.4789 23.0532C52.9725 23.4799 52.3936 23.8265 51.7424 24.0932C51.0912 24.3421 50.3948 24.4665 49.6532 24.4665C48.803 24.4665 47.9981 24.3065 47.2384 23.9865C46.4967 23.6488 45.8365 23.1954 45.2576 22.6265C44.6969 22.0577 44.2447 21.3999 43.901 20.6532C43.5754 19.8888 43.4126 19.071 43.4126 18.1999C43.4126 17.3288 43.5754 16.5199 43.901 15.7732C44.2447 15.0088 44.6969 14.3421 45.2576 13.7732C45.8365 13.2043 46.4967 12.7599 47.2384 12.4399C47.9981 12.1021 48.803 11.9332 49.6532 11.9332C50.3948 11.9332 51.0912 12.0665 51.7424 12.3332C52.3936 12.5821 52.9725 12.9288 53.4789 13.3732C53.9854 13.7999 54.4105 14.2976 54.7542 14.8665C55.0979 15.4177 55.3421 15.9954 55.4868 16.5999H52.3665C52.2218 16.2799 52.0228 15.9954 51.7696 15.7465C51.5525 15.5332 51.2721 15.3376 50.9284 15.1599C50.5848 14.9643 50.1597 14.8665 49.6532 14.8665C48.7668 14.8665 48.0252 15.1688 47.4283 15.7732C46.8314 16.3777 46.5329 17.1865 46.5329 18.1999C46.5329 19.2132 46.8314 20.0221 47.4283 20.6265C48.0252 21.231 48.7668 21.5332 49.6532 21.5332C50.1597 21.5332 50.5848 21.4443 50.9284 21.2665C51.2721 21.0888 51.5525 20.8932 51.7696 20.6799C52.0228 20.431 52.2218 20.1376 52.3665 19.7999H55.4868Z" fill="#101C26"/>
<path d="M62.9484 11.9332C63.6176 11.9332 64.2417 12.0576 64.8205 12.3065C65.4175 12.5376 65.924 12.8843 66.34 13.3465C66.756 13.791 67.0816 14.3332 67.3168 14.9732C67.57 15.6132 67.6966 16.3332 67.6966 17.1332V24.3332H64.5763V17.5332C64.5763 16.7332 64.3322 16.0932 63.8438 15.6132C63.3735 15.1154 62.7584 14.8665 61.9987 14.8665C61.239 14.8665 60.6149 15.1154 60.1265 15.6132C59.6562 16.0932 59.4211 16.7332 59.4211 17.5332V24.3332H56.3008V7.5332H59.4211V13.2665C59.6562 13.0176 59.9366 12.7954 60.2622 12.5999C60.5516 12.4399 60.9134 12.2888 61.3475 12.1465C61.7997 12.0043 62.3334 11.9332 62.9484 11.9332Z" fill="#101C26"/>
<path d="M74.3548 11.9332C75.0603 11.9332 75.7115 12.0576 76.3084 12.3065C76.9053 12.5376 77.4209 12.8665 77.855 13.2932C78.2891 13.7199 78.6238 14.2265 78.8589 14.8132C79.1122 15.3999 79.2388 16.0399 79.2388 16.7332V24.3332H76.9325L76.3898 23.1332C76.1004 23.3821 75.7838 23.6043 75.4402 23.7999C75.1326 23.9776 74.7618 24.1377 74.3277 24.2799C73.8936 24.4043 73.4052 24.4665 72.8625 24.4665C71.5059 24.4665 70.4658 24.1465 69.7422 23.5065C69.0187 22.8488 68.6569 22.0132 68.6569 20.9999C68.6569 20.3954 68.7745 19.8443 69.0096 19.3465C69.2629 18.831 69.6789 18.3954 70.2577 18.0399C70.8366 17.6665 71.5963 17.3821 72.5369 17.1865C73.4956 16.9732 74.6895 16.8665 76.1185 16.8665C76.1185 16.191 75.9285 15.6665 75.5487 15.2932C75.1869 14.9199 74.6985 14.7332 74.0835 14.7332C73.6675 14.7332 73.3328 14.8043 73.0796 14.9465C72.8444 15.0888 72.6545 15.2399 72.5098 15.3999C72.347 15.5954 72.2385 15.8176 72.1842 16.0665H69.0639C69.1362 15.4976 69.299 14.9643 69.5523 14.4665C69.8236 13.9688 70.1854 13.5332 70.6376 13.1599C71.0898 12.7865 71.6234 12.4932 72.2385 12.2799C72.8716 12.0488 73.577 11.9332 74.3548 11.9332ZM73.4052 22.0665C74.2192 22.0665 74.8704 21.8354 75.3588 21.3732C75.8652 20.8932 76.1185 20.2799 76.1185 19.5332V18.9999C75.196 18.9999 74.4543 19.0443 73.8936 19.1332C73.3328 19.2043 72.8897 19.3199 72.5641 19.4799C72.2565 19.6221 72.0485 19.7999 71.94 20.0132C71.8315 20.2265 71.7772 20.4665 71.7772 20.7332C71.7772 21.071 71.931 21.3821 72.2385 21.6665C72.546 21.9332 72.9349 22.0665 73.4052 22.0665Z" fill="#101C26"/>
<path d="M81.8122 9.1332H84.5255V12.0665H87.2388V14.8665H84.5255V19.9332C84.5255 20.4665 84.6792 20.8932 84.9867 21.2132C85.3123 21.5154 85.7465 21.6665 86.2891 21.6665C86.4338 21.6665 86.5514 21.6665 86.6418 21.6665C86.7323 21.6488 86.8137 21.631 86.886 21.6132C86.9584 21.5954 87.0308 21.5688 87.1031 21.5332V24.1999C86.9765 24.2532 86.8318 24.2977 86.669 24.3332C86.3615 24.4221 86.0087 24.4665 85.6108 24.4665C84.9958 24.4665 84.426 24.3688 83.9014 24.1732C83.3949 23.9599 82.9518 23.6577 82.5719 23.2665C82.2101 22.8754 81.9207 22.4132 81.7036 21.8799C81.5047 21.3465 81.4052 20.7421 81.4052 20.0665V14.8665H79.5059V12.3332H80.3199C81.3147 12.3332 81.8122 11.8443 81.8122 10.8665V9.1332Z" fill="#101C26"/>
<path d="M89.809 9.1332H92.5223V12.0665H95.2356V14.8665H92.5223V19.9332C92.5223 20.4665 92.676 20.8932 92.9836 21.2132C93.3092 21.5154 93.7433 21.6665 94.2859 21.6665C94.4306 21.6665 94.5482 21.6665 94.6387 21.6665C94.7291 21.6488 94.8105 21.631 94.8829 21.6132C94.9552 21.5954 95.0276 21.5688 95.0999 21.5332V24.1999C94.9733 24.2532 94.8286 24.2977 94.6658 24.3332C94.3583 24.4221 94.0056 24.4665 93.6076 24.4665C92.9926 24.4665 92.4228 24.3688 91.8982 24.1732C91.3918 23.9599 90.9486 23.6577 90.5687 23.2665C90.2069 22.8754 89.9175 22.4132 89.7005 21.8799C89.5015 21.3465 89.402 20.7421 89.402 20.0665V14.8665H87.5027V12.3332H88.3167C89.3116 12.3332 89.809 11.8443 89.809 10.8665V9.1332Z" fill="#101C26"/>
<path d="M107.309 20.5999C107.146 21.0621 106.893 21.5243 106.549 21.9865C106.223 22.4488 105.816 22.8665 105.328 23.2399C104.858 23.5954 104.315 23.8888 103.7 24.1199C103.103 24.351 102.452 24.4665 101.746 24.4665C100.896 24.4665 100.091 24.3065 99.3316 23.9865C98.59 23.6488 97.9297 23.1954 97.3509 22.6265C96.7902 22.0577 96.3379 21.3999 95.9943 20.6532C95.6687 19.8888 95.5059 19.071 95.5059 18.1999C95.5059 17.3288 95.6687 16.5199 95.9943 15.7732C96.3379 15.0088 96.7902 14.3421 97.3509 13.7732C97.9297 13.2043 98.59 12.7599 99.3316 12.4399C100.091 12.1021 100.896 11.9332 101.746 11.9332C102.56 11.9332 103.329 12.0843 104.053 12.3865C104.776 12.6888 105.409 13.1154 105.952 13.6665C106.495 14.2176 106.92 14.8843 107.227 15.6665C107.553 16.431 107.716 17.2754 107.716 18.1999C107.716 18.3421 107.707 18.4843 107.689 18.6265C107.671 18.751 107.652 18.8754 107.634 18.9999C107.616 19.1421 107.598 19.2754 107.58 19.3999H98.8975C99.0422 20.0043 99.3497 20.511 99.82 20.9199C100.29 21.3288 100.932 21.5332 101.746 21.5332C102.162 21.5332 102.506 21.4888 102.778 21.3999C103.067 21.311 103.311 21.2043 103.51 21.0799C103.727 20.9377 103.908 20.7777 104.053 20.5999H107.309ZM101.746 14.8665C100.932 14.8665 100.263 15.0976 99.7386 15.5599C99.2321 16.0221 98.9065 16.591 98.7618 17.2665H104.731C104.586 16.591 104.252 16.0221 103.727 15.5599C103.221 15.0976 102.56 14.8665 101.746 14.8665Z" fill="#101C26"/>
<path d="M114.493 11.9332C114.637 11.9332 114.764 11.9421 114.872 11.9599C114.981 11.9776 115.08 11.9954 115.171 12.0132C115.261 12.031 115.352 12.0488 115.442 12.0665V15.2665C115.352 15.2488 115.252 15.231 115.144 15.2132C115.053 15.1954 114.936 15.1776 114.791 15.1599C114.664 15.1421 114.52 15.1332 114.357 15.1332C113.597 15.1332 112.973 15.3821 112.485 15.8799C112.014 16.3599 111.779 16.9999 111.779 17.7999V24.3332H108.659V12.0665H110.965L111.508 13.3999C111.725 13.1332 111.987 12.8932 112.295 12.6799C112.548 12.4843 112.856 12.3154 113.217 12.1732C113.597 12.0132 114.022 11.9332 114.493 11.9332Z" fill="#101C26"/>
<path d="M127.118 20.5999C126.955 21.0621 126.702 21.5243 126.358 21.9865C126.033 22.4488 125.626 22.8665 125.137 23.2399C124.667 23.5954 124.124 23.8888 123.509 24.1199C122.912 24.351 122.261 24.4665 121.556 24.4665C120.706 24.4665 119.901 24.3065 119.141 23.9865C118.399 23.6488 117.739 23.1954 117.16 22.6265C116.599 22.0577 116.147 21.3999 115.803 20.6532C115.478 19.8888 115.315 19.071 115.315 18.1999C115.315 17.3288 115.478 16.5199 115.803 15.7732C116.147 15.0088 116.599 14.3421 117.16 13.7732C117.739 13.2043 118.399 12.7599 119.141 12.4399C119.901 12.1021 120.706 11.9332 121.556 11.9332C122.37 11.9332 123.138 12.0843 123.862 12.3865C124.586 12.6888 125.219 13.1154 125.761 13.6665C126.304 14.2176 126.729 14.8843 127.037 15.6665C127.362 16.431 127.525 17.2754 127.525 18.1999C127.525 18.3421 127.516 18.4843 127.498 18.6265C127.48 18.751 127.462 18.8754 127.444 18.9999C127.425 19.1421 127.407 19.2754 127.389 19.3999H118.707C118.851 20.0043 119.159 20.511 119.629 20.9199C120.1 21.3288 120.742 21.5332 121.556 21.5332C121.972 21.5332 122.315 21.4888 122.587 21.3999C122.876 21.311 123.12 21.2043 123.319 21.0799C123.536 20.9377 123.717 20.7777 123.862 20.5999H127.118ZM121.556 14.8665C120.742 14.8665 120.072 15.0976 119.548 15.5599C119.041 16.0221 118.716 16.591 118.571 17.2665H124.54C124.396 16.591 124.061 16.0221 123.536 15.5599C123.03 15.0976 122.37 14.8665 121.556 14.8665Z" fill="#101C26"/>
<path d="M139.593 20.5999C139.43 21.0621 139.177 21.5243 138.833 21.9865C138.507 22.4488 138.1 22.8665 137.612 23.2399C137.142 23.5954 136.599 23.8888 135.984 24.1199C135.387 24.351 134.736 24.4665 134.031 24.4665C133.18 24.4665 132.375 24.3065 131.616 23.9865C130.874 23.6488 130.214 23.1954 129.635 22.6265C129.074 22.0577 128.622 21.3999 128.278 20.6532C127.953 19.8888 127.79 19.071 127.79 18.1999C127.79 17.3288 127.953 16.5199 128.278 15.7732C128.622 15.0088 129.074 14.3421 129.635 13.7732C130.214 13.2043 130.874 12.7599 131.616 12.4399C132.375 12.1021 133.18 11.9332 134.031 11.9332C134.844 11.9332 135.613 12.0843 136.337 12.3865C137.06 12.6888 137.693 13.1154 138.236 13.6665C138.779 14.2176 139.204 14.8843 139.511 15.6665C139.837 16.431 140 17.2754 140 18.1999C140 18.3421 139.991 18.4843 139.973 18.6265C139.955 18.751 139.936 18.8754 139.918 18.9999C139.9 19.1421 139.882 19.2754 139.864 19.3999H131.182C131.326 20.0043 131.634 20.511 132.104 20.9199C132.574 21.3288 133.217 21.5332 134.031 21.5332C134.447 21.5332 134.79 21.4888 135.062 21.3999C135.351 21.311 135.595 21.2043 135.794 21.0799C136.011 20.9377 136.192 20.7777 136.337 20.5999H139.593ZM134.031 14.8665C133.217 14.8665 132.547 15.0976 132.023 15.5599C131.516 16.0221 131.191 16.591 131.046 17.2665H137.015C136.87 16.591 136.536 16.0221 136.011 15.5599C135.505 15.0976 134.844 14.8665 134.031 14.8665Z" fill="#101C26"/>
<defs>
<clipPath id="clip0_313:2840">
<rect width="32.5596" height="32" fill="white" transform="matrix(-1 0 0 1 32.5596 0)"/>
</clipPath>
</defs>
</svg>
