<svg width="80" height="80" viewBox="0 0 80 80" fill="none" xmlns="http://www.w3.org/2000/svg">
<g filter="url(#filter0_d_324:1626)">
<circle cx="40" cy="38" r="24" fill="white"/>
</g>
<path d="M36.7071 38H46.5C46.7761 38 47 38.2239 47 38.5C47 38.7761 46.7761 39 46.5 39H36.7071L39.8536 42.1464C40.0488 42.3417 40.0488 42.6583 39.8536 42.8536C39.6583 43.0488 39.3417 43.0488 39.1464 42.8536L35.1464 38.8536C34.9512 38.6583 34.9512 38.3417 35.1464 38.1464L39.1464 34.1464C39.3417 33.9512 39.6583 33.9512 39.8536 34.1464C40.0488 34.3417 40.0488 34.6583 39.8536 34.8536L36.7071 38Z" fill="#101C26"/>
<defs>
<filter id="filter0_d_324:1626" x="0" y="0" width="80" height="80" filterUnits="userSpaceOnUse" color-interpolation-filters="sRGB">
<feFlood flood-opacity="0" result="BackgroundImageFix"/>
<feColorMatrix in="SourceAlpha" type="matrix" values="0 0 0 0 0 0 0 0 0 0 0 0 0 0 0 0 0 0 127 0" result="hardAlpha"/>
<feOffset dy="2"/>
<feGaussianBlur stdDeviation="8"/>
<feColorMatrix type="matrix" values="0 0 0 0 0.0627451 0 0 0 0 0.109804 0 0 0 0 0.14902 0 0 0 0.12 0"/>
<feBlend mode="normal" in2="BackgroundImageFix" result="effect1_dropShadow_324:1626"/>
<feBlend mode="normal" in="SourceGraphic" in2="effect1_dropShadow_324:1626" result="shape"/>
</filter>
</defs>
</svg>
