<svg width="19" height="19" viewBox="0 0 19 19" fill="none" xmlns="http://www.w3.org/2000/svg">
<path fill-rule="evenodd" clip-rule="evenodd" d="M17.9942 1.42376C18.2955 3.23886 18.0488 5.06451 17.307 6.70596C17.2261 6.885 17.0479 7.00007 16.8514 7.00007H15.7071L16.3447 7.63768C16.5178 7.81074 16.5401 8.08362 16.3976 8.28253C14.9901 10.246 12.8704 11.5881 10.4393 11.9933C9.53281 12.1444 8.60929 12.1585 7.69957 12.0357C6.88602 12.6766 6.15814 13.0001 5.5 13.0001C5.22386 13.0001 5 12.7762 5 12.5001C5 12.2239 5.22386 12.0001 5.5 12.0001C5.89025 12.0001 6.38367 11.7802 6.96917 11.3364C6.28369 6.4219 9.63643 1.82758 14.5607 1.00687C15.559 0.840485 16.5779 0.840158 17.5763 1.00589C17.6778 1.02148 17.7754 1.06835 17.8536 1.14651C17.9317 1.22468 17.9786 1.32228 17.9942 1.42376ZM17.1123 2.59488L14.8536 4.85362C14.6583 5.04888 14.3417 5.04888 14.1464 4.85362C13.9512 4.65836 13.9512 4.34178 14.1464 4.14651L16.4044 1.88861C15.8434 1.86578 15.2806 1.90067 14.7251 1.99327C10.5631 2.68692 7.66085 6.40546 7.89354 10.5235C8.27396 10.1481 8.68208 9.70055 9.11589 9.17998C9.29267 8.96784 9.60795 8.93917 9.82009 9.11596C10.0322 9.29274 10.0609 9.60802 9.88411 9.82016C9.47801 10.3075 9.08941 10.7394 8.7171 11.1156C9.23779 11.129 9.75945 11.0928 10.2749 11.0069C12.3002 10.6693 14.0813 9.60359 15.3299 8.03706L14.1464 6.85362C13.8315 6.53864 14.0545 6.00007 14.5 6.00007H16.5218C16.9588 4.92321 17.1616 3.76649 17.1123 2.59488ZM17.5 10.0001C17.2239 10.0001 17 10.2239 17 10.5001V16.5001C17 17.3285 16.3284 18.0001 15.5 18.0001H2.5C1.67157 18.0001 1 17.3285 1 16.5001V3.50007C1 2.67164 1.67157 2.00007 2.5 2.00007H8.5C8.77614 2.00007 9 1.77621 9 1.50007C9 1.22393 8.77614 1.00007 8.5 1.00007H2.5C1.11929 1.00007 0 2.11936 0 3.50007V16.5001C0 17.8808 1.11929 19.0001 2.5 19.0001H15.5C16.8807 19.0001 18 17.8808 18 16.5001V10.5001C18 10.2239 17.7761 10.0001 17.5 10.0001Z" fill="#101C26"/>
</svg>
